# xmcd CD database file
#
# Track frame offsets:
#	150
#	12075
#	31725
#	57715
#	78263
#	96875
#	113625
#	133800
#	148650
#	168438
#	187925
#	210075
#	224338
#	237175
#	255975
#	268950
#
# Disc length: 3836 seconds
#
# Revision: 2
# Processed by: cddbd v1.5.1PL0 Copyright (c) Steve Scherf et al.
# Submitted via: CDex 1.50
#
DISCID=d80efa10
DTITLE=Freddie Aguilar - Ngayon
DYEAR=1990
DGENRE=Tagalog
TTITLE0=Estudyante Blues
TTITLE1=Ipaglalaban Ko
TTITLE2=Anak (Alaala)
TTITLE3=Napupuyat
TTITLE4=Sigarilyo
TTITLE5=Himig
TTITLE6=Sa Kuko Ng Agila
TTITLE7=Sa Kabukiran
TTITLE8=Huwag
TTITLE9=Sariling Atin
TTITLE10=Huwad Na Kalayaan
TTITLE11=Pamulinawen
TTITLE12=Atin Cu Pung Singsing
TTITLE13=Magsaysay-Olongapo
TTITLE14=Kung Maging Ulila
TTITLE15=Sayang Imelda
EXTD=
EXTT0=
EXTT1=
EXTT2=
EXTT3=
EXTT4=
EXTT5=
EXTT6=
EXTT7=
EXTT8=
EXTT9=
EXTT10=
EXTT11=
EXTT12=
EXTT13=
EXTT14=
EXTT15=
PLAYORDER=
